<?xml version="1.0" standalone="no"?><!DOCTYPE svg PUBLIC "-//W3C//DTD SVG 1.1//EN" "http://www.w3.org/Graphics/SVG/1.1/DTD/svg11.dtd"><svg t="1508226383491" class="icon" style="" viewBox="0 0 1024 1024" version="1.1" xmlns="http://www.w3.org/2000/svg" p-id="3456" xmlns:xlink="http://www.w3.org/1999/xlink" width="48" height="48"><defs><style type="text/css"></style></defs><path d="M547.96205 69.169359c77.006861 18.404162 129.981377 81.804121 130.889049 160.29273 0.967024 83.695191 0.264013 167.410847 0.207731 251.117294-0.00307 4.098341-0.798179 8.196683-1.323135 13.250792-111.545492 0-222.303039 0-334.804299 0-0.358157-7.148817-1.01819-14.259772-1.025353-21.370727-0.072655-75.820849-0.12382-151.642722-0.020466-227.463572 0.134053-98.706069 52.499701-161.080675 150.143579-179.23822C494.904647 65.22349 519.164167 62.287625 547.96205 69.169359z" p-id="3457" fill="#8a8a8a"></path><path d="M278.184767 528.410762c8.947789 0 17.895579 0 27.607778 0 1.381463 23.63121 1.541099 45.351907 4.095271 66.787102 12.06171 101.217263 90.153276 173.622316 192.527898 179.309852 94.604658 5.255701 184.01706-61.405535 205.590402-155.939585 5.981225-26.209942 4.719488-54.069453 6.854105-81.165578 0.181125-2.300392 0.914836-4.556783 1.552356-7.597025 7.642051 0 14.691607 0 23.921829 0 3.261277 45.564755 1.757017 90.296539-17.809621 132.717697-33.259498 72.106248-89.252767 116.685559-166.609599 132.945895-16.671705 3.5038-20.369933 10.096962-19.564591 25.110911 1.036609 19.348674 0.928139 38.82526 0.024559 58.187237-0.598634 12.818957 5.091972 15.44783 16.631796 17.767666 37.781488 7.596002 75.632561 15.581883 112.512517 26.584472 15.874549 4.735861 33.227776 13.535271 35.072797 34.980699-125.022435 0-250.04487 0-375.066281 0 2.2656-21.12718 19.336394-29.93273 35.232432-35.020608 33.741475-10.797927 68.50114-18.677385 103.2035-26.059516 11.024078-2.345418 15.694447-5.245468 15.245216-16.943904-0.789992-20.553105-1.357927-41.24231 0.154519-61.714574 1.14201-15.456017-4.834098-20.032242-19.150152-23.61893-95.991238-24.053835-154.815995-84.922135-176.038342-181.76988-2.177596-9.939373-3.999081-19.957541-5.986341-29.938869C278.184767 564.825113 278.184767 546.617425 278.184767 528.410762z" p-id="3458" fill="#8a8a8a"></path><path d="M344.415191 529.703197c110.516046 0 221.152842 0 331.688331 0 12.366655 72.809259-9.246595 134.779659-66.666352 176.461991-57.132208 41.472554-132.99092 43.115983-191.125969 4.89038C359.970468 672.693866 333.212034 608.215342 344.415191 529.703197z" p-id="3459" fill="#8a8a8a"></path></svg>