<?xml version="1.0" standalone="no"?><!DOCTYPE svg PUBLIC "-//W3C//DTD SVG 1.1//EN" "http://www.w3.org/Graphics/SVG/1.1/DTD/svg11.dtd"><svg t="1508982783503" class="icon" style="" viewBox="0 0 1024 1024" version="1.1" xmlns="http://www.w3.org/2000/svg" p-id="2375" xmlns:xlink="http://www.w3.org/1999/xlink" width="64" height="64"><defs><style type="text/css"></style></defs><path d="M531.402909 571.216683c-29.345352 28.65462-58.400085 57.014528-87.441515 85.387739C340.879668 757.311055 237.598396 857.815073 134.959761 958.972984c-14.108323 13.904685-37.85619 11.377118-43.086307-8.718569-2.687202-10.324136 1.545192-18.307971 8.852622-25.425066 47.792493-46.552246 95.485725-93.206822 143.204539-139.834792 80.804351-78.95626 161.603585-157.917636 242.412029-236.869802 3.388167-3.310396 6.845918-6.54916 12.639878-12.082176-3.464915-2.224668-6.871501-3.687996-9.346879-6.104021C360.409466 403.799696 231.284597 277.558503 102.054327 151.425781c-7.427156-7.249101-12.738116-14.994506-10.465352-25.819039 3.676739-17.512862 24.295336-24.90011 38.383192-13.731746 4.164856 3.302209 7.833409 7.239891 11.649318 10.968819 127.683031 124.746142 255.354805 249.503541 383.03579 374.252753 2.106987 2.058892 4.297886 4.031826 6.978948 6.540973 2.711761-2.567475 5.270027-4.925173 7.757684-7.355525 129.165802-126.198214 258.34286-252.386194 387.444193-378.651946 7.540743-7.374968 15.343453-13.238512 26.65201-10.42135 17.97028 4.475941 24.615631 25.320689 12.267395 39.308261-5.871731 6.65149-12.58769 12.561084-18.948561 18.777669C821.894979 287.358707 696.976922 409.41867 572.069097 531.48989c-1.89107 1.848091-3.657296 3.823072-6.54609 6.856152 3.76372 3.25002 7.485485 6.131651 10.830673 9.399067C704.272072 672.674423 832.15567 797.639552 960.043363 922.601612c1.696642 1.657756 3.438309 3.275603 5.040806 5.022387 9.305947 10.145058 9.292644 24.243147 0.00921 33.601282-9.107425 9.181103-23.847128 9.67536-33.663704 0.336668-18.47477-17.574261-36.5658-35.551704-54.804187-53.373605C763.584945 797.730627 650.550543 687.268816 537.504884 576.817238 535.629163 574.984497 533.641903 573.266365 531.402909 571.216683z" p-id="2376" fill="#bfbfbf"></path></svg>